<svg width="1232" height="1232" viewBox="0 0 1232 1232" fill="none" xmlns="http://www.w3.org/2000/svg">
<path fill-rule="evenodd" clip-rule="evenodd" d="M628.901 542.902C626.441 542.039 624.015 543.399 621.287 546.005C618.525 548.643 615.165 552.843 610.754 558.357L610.754 558.357L610.711 558.411L577.678 599.702L577.633 599.758C574.286 603.942 571.72 607.15 570.204 609.738C568.687 612.329 568.079 614.536 569.067 616.591C570.055 618.646 572.158 619.55 575.129 619.984C578.097 620.417 582.204 620.417 587.562 620.417H587.562H587.634H597.334C600.183 620.417 602.245 620.418 603.817 620.63C605.368 620.838 606.33 621.238 607.046 621.955C607.762 622.671 608.162 623.632 608.371 625.183C608.582 626.755 608.584 628.817 608.584 631.667V649.624V649.694V649.694C608.584 656.755 608.584 662.133 609.092 665.919C609.594 669.658 610.639 672.235 613.099 673.098C615.56 673.961 617.985 672.601 620.713 669.995C623.475 667.357 626.835 663.157 631.246 657.644L631.29 657.589L664.322 616.298L664.367 616.242L664.367 616.242C667.715 612.058 670.28 608.851 671.796 606.263C673.314 603.672 673.921 601.465 672.934 599.409C671.946 597.354 669.843 596.45 666.871 596.016C663.904 595.584 659.796 595.584 654.438 595.584H654.438H654.366H644.667C641.817 595.584 639.755 595.582 638.183 595.371C636.632 595.162 635.671 594.762 634.955 594.046C634.238 593.33 633.838 592.368 633.63 590.817C633.418 589.245 633.417 587.183 633.417 584.334V566.376V566.307C633.417 559.246 633.417 553.867 632.908 550.082C632.406 546.342 631.362 543.765 628.901 542.902Z" fill="url(#paint0_linear_111_784)"/>
<circle cx="435" cy="608" r="31" stroke="url(#paint1_linear_111_784)" stroke-opacity="0.08" stroke-width="2"/>
<circle cx="435" cy="608" r="50" stroke="url(#paint2_linear_111_784)" stroke-opacity="0.12" stroke-width="4"/>
<circle cx="435" cy="608" r="70" stroke="url(#paint3_linear_111_784)" stroke-opacity="0.16" stroke-width="6"/>
<circle cx="621" cy="425" r="31" transform="rotate(90 621 425)" stroke="url(#paint4_linear_111_784)" stroke-opacity="0.08" stroke-width="2"/>
<circle cx="621" cy="425" r="50" transform="rotate(90 621 425)" stroke="url(#paint5_linear_111_784)" stroke-opacity="0.12" stroke-width="4"/>
<circle cx="621" cy="425" r="70" transform="rotate(90 621 425)" stroke="url(#paint6_linear_111_784)" stroke-opacity="0.16" stroke-width="6"/>
<circle cx="621" cy="791" r="31" transform="rotate(-90 621 791)" stroke="url(#paint7_linear_111_784)" stroke-opacity="0.08" stroke-width="2"/>
<circle cx="621" cy="791" r="50" transform="rotate(-90 621 791)" stroke="url(#paint8_linear_111_784)" stroke-opacity="0.12" stroke-width="4"/>
<circle cx="621" cy="791" r="70" transform="rotate(-90 621 791)" stroke="url(#paint9_linear_111_784)" stroke-opacity="0.16" stroke-width="6"/>
<circle cx="780" cy="605" r="31" transform="rotate(-180 780 605)" stroke="url(#paint10_linear_111_784)" stroke-opacity="0.08" stroke-width="2"/>
<circle cx="780" cy="605" r="50" transform="rotate(-180 780 605)" stroke="url(#paint11_linear_111_784)" stroke-opacity="0.12" stroke-width="4"/>
<circle cx="780" cy="605" r="70" transform="rotate(-180 780 605)" stroke="url(#paint12_linear_111_784)" stroke-opacity="0.16" stroke-width="6"/>
<g filter="url(#filter0_f_111_784)">
<circle cx="616" cy="616" r="216" fill="url(#paint13_radial_111_784)" fill-opacity="0.16"/>
</g>
<defs>
<filter id="filter0_f_111_784" x="0" y="0" width="1232" height="1232" filterUnits="userSpaceOnUse" color-interpolation-filters="sRGB">
<feFlood flood-opacity="0" result="BackgroundImageFix"/>
<feBlend mode="normal" in="SourceGraphic" in2="BackgroundImageFix" result="shape"/>
<feGaussianBlur stdDeviation="200" result="effect1_foregroundBlur_111_784"/>
</filter>
<linearGradient id="paint0_linear_111_784" x1="621.589" y1="673.357" x2="685.967" y2="619.272" gradientUnits="userSpaceOnUse">
<stop stop-color="#FFC657"/>
<stop offset="1" stop-color="#FFD977"/>
</linearGradient>
<linearGradient id="paint1_linear_111_784" x1="467" y1="608" x2="403" y2="608" gradientUnits="userSpaceOnUse">
<stop stop-color="white"/>
<stop offset="0.621142" stop-color="white" stop-opacity="0"/>
</linearGradient>
<linearGradient id="paint2_linear_111_784" x1="487" y1="608" x2="383" y2="608" gradientUnits="userSpaceOnUse">
<stop stop-color="white"/>
<stop offset="0.635367" stop-color="white" stop-opacity="0"/>
</linearGradient>
<linearGradient id="paint3_linear_111_784" x1="508" y1="608" x2="362" y2="608" gradientUnits="userSpaceOnUse">
<stop stop-color="white"/>
<stop offset="0.589761" stop-color="white" stop-opacity="0"/>
</linearGradient>
<linearGradient id="paint4_linear_111_784" x1="653" y1="425" x2="589" y2="425" gradientUnits="userSpaceOnUse">
<stop stop-color="white"/>
<stop offset="0.621142" stop-color="white" stop-opacity="0"/>
</linearGradient>
<linearGradient id="paint5_linear_111_784" x1="673" y1="425" x2="569" y2="425" gradientUnits="userSpaceOnUse">
<stop stop-color="white"/>
<stop offset="0.635367" stop-color="white" stop-opacity="0"/>
</linearGradient>
<linearGradient id="paint6_linear_111_784" x1="694" y1="425" x2="548" y2="425" gradientUnits="userSpaceOnUse">
<stop stop-color="white"/>
<stop offset="0.589761" stop-color="white" stop-opacity="0"/>
</linearGradient>
<linearGradient id="paint7_linear_111_784" x1="653" y1="791" x2="589" y2="791" gradientUnits="userSpaceOnUse">
<stop stop-color="white"/>
<stop offset="0.621142" stop-color="white" stop-opacity="0"/>
</linearGradient>
<linearGradient id="paint8_linear_111_784" x1="673" y1="791" x2="569" y2="791" gradientUnits="userSpaceOnUse">
<stop stop-color="white"/>
<stop offset="0.635367" stop-color="white" stop-opacity="0"/>
</linearGradient>
<linearGradient id="paint9_linear_111_784" x1="694" y1="791" x2="548" y2="791" gradientUnits="userSpaceOnUse">
<stop stop-color="white"/>
<stop offset="0.589761" stop-color="white" stop-opacity="0"/>
</linearGradient>
<linearGradient id="paint10_linear_111_784" x1="812" y1="605" x2="748" y2="605" gradientUnits="userSpaceOnUse">
<stop stop-color="white"/>
<stop offset="0.621142" stop-color="white" stop-opacity="0"/>
</linearGradient>
<linearGradient id="paint11_linear_111_784" x1="832" y1="605" x2="728" y2="605" gradientUnits="userSpaceOnUse">
<stop stop-color="white"/>
<stop offset="0.635367" stop-color="white" stop-opacity="0"/>
</linearGradient>
<linearGradient id="paint12_linear_111_784" x1="853" y1="605" x2="707" y2="605" gradientUnits="userSpaceOnUse">
<stop stop-color="white"/>
<stop offset="0.589761" stop-color="white" stop-opacity="0"/>
</linearGradient>
<radialGradient id="paint13_radial_111_784" cx="0" cy="0" r="1" gradientUnits="userSpaceOnUse" gradientTransform="translate(616 616) rotate(-33.2177) scale(167.866)">
<stop stop-color="#FFA877"/>
<stop offset="1" stop-color="#FFD977" stop-opacity="0"/>
</radialGradient>
</defs>
</svg>
