<svg
  width="56"
  height="56"
  viewBox="15 12 26 25"
  fill="none"
  xmlns="http://www.w3.org/2000/svg">
  <rect x="16" y="12" width="24" height="24" rx="12" fill="#13B5EC" />
  <path fill-rule="evenodd" clip-rule="evenodd"
    d="M28.9 21.675l2.7-1.575v3.15l-2.7-1.575zm2.7 6.75l-3.6 2.1-3.6-2.1V24.75l3.6 2.1 3.6-2.1v3.675zM24.4 20.1l2.7 1.575-2.7 1.575V20.1zm4.05 2.325L31.15 24l-2.7 1.575v-3.15zm-.9 3.15L24.85 24l2.7-1.575v3.15zm3.6-6.225L28 21.15l-3.15-1.8L28 17.475l3.15 1.875zm-7.65-.3v9.825l4.5 2.55 4.5-2.55V19.05L28 16.5l-4.5 2.55z"
    fill="#fff" />
</svg>