<svg width="455" height="162" fill="none" xmlns="http://www.w3.org/2000/svg">
  <mask id="prefix__a" style="mask-type:alpha" maskUnits="userSpaceOnUse" x="1" y="1" width="453" height="160">
    <path
      d="M5.65 144.833l-2.883-3.445c-.6-.717-1.767-.293-1.767.641V160a1 1 0 001 1h451a1 1 0 001-1V33.336c0-1.067-1.447-1.392-1.904-.428l-7.267 15.333a.993.993 0 01-.171.252L427.113 67.42a1 1 0 01-1.354.105l-16.083-12.737a1 1 0 00-1.46.24L391.475 80.85a1 1 0 01-1.651.04l-17.261-24.026a1 1 0 00-1.237-.322l-16.653 7.808c-.173.081-.32.21-.422.372L336.47 92.92a1 1 0 01-1.548.178L316.464 74.89a.99.99 0 01-.259-.436L299.369 15.72a1.004 1.004 0 00-.344-.51l-17.49-13.74a1 1 0 00-1.212-.018l-18.584 13.711a1.001 1.001 0 01-.743.185l-15.876-2.392a1 1 0 00-.849.276l-18 17.676a1 1 0 01-1.37.029L195.45 4.379a1 1 0 00-1.5.186l-32.707 48.767a1 1 0 01-1.327.311L134.07 38.86a1 1 0 01-.145-.1l-17.197-14.366a1 1 0 00-.914-.195l-17.393 4.94a1 1 0 01-1.104-.404L81.544 5.251a1 1 0 00-1.772.22l-18.7 52.262a1 1 0 01-.278.412l-17.8 15.754a1 1 0 00-.23.3L7.31 144.64a1 1 0 01-1.66.192z"
      fill="url(#prefix__paint0_linear_13_1659)" />
  </mask>
  <g mask="url(#prefix__a)">
    <path
      d="M4.673 143.666l-.139-.166c-1.2-1.433-3.534-.585-3.534 1.283V159a2 2 0 002 2h449a2 2 0 002-2V37.78c0-2.133-2.894-2.784-3.807-.856l-5.298 11.178a2.035 2.035 0 01-.341.504l-16.812 18.136a2 2 0 01-2.708.208l-14.496-11.48a2 2 0 00-2.92.48l-15.346 23.671a2 2 0 01-3.303.08l-15.922-22.162a2 2 0 00-2.473-.644l-15.636 7.33c-.346.163-.639.421-.843.745l-16.962 26.898a2 2 0 01-3.096.357l-17.387-17.15a2 2 0 01-.518-.873l-16.674-58.17a2.006 2.006 0 00-.687-1.023L282.134 1.941a2 2 0 00-2.423-.037l-17.639 13.014a2 2 0 01-1.485.368l-14.973-2.255a2 2 0 00-1.699.55l-16.972 16.667a2 2 0 01-2.741.059L196.307 5.152a2 2 0 00-3 .372l-31.546 47.035a2 2 0 01-2.654.622l-24.961-14.277a1.99 1.99 0 01-.289-.201l-16.723-13.97a2 2 0 00-1.829-.39l-16.186 4.598a2 2 0 01-2.207-.808L82.648 6.895c-.915-1.362-2.99-1.104-3.543.441L61.159 57.491a2 2 0 01-.557.824L43.139 73.772a2 2 0 00-.461.598L7.993 143.282a2 2 0 01-3.32.384z"
      fill="#40C374" />
  </g>
  <path
    d="M1 142.137l3.658 4.462a2 2 0 003.34-.383L42.682 75.88c.111-.226.265-.43.453-.6l17.473-15.785a2 2 0 00.547-.822l17.947-51.2c.548-1.562 2.648-1.82 3.558-.437l14.251 21.656a2 2 0 002.228.822l16.149-4.682a1.998 1.998 0 011.854.399l16.715 14.252c.091.077.187.146.29.206l24.939 14.56a2 2 0 002.68-.63L193.3 5.63a2 2 0 013.026-.374l27.86 25.644a2 2 0 002.771-.06l16.953-16.993a2.002 2.002 0 011.72-.564l14.942 2.297a1.999 1.999 0 001.507-.379l17.616-13.265a2 2 0 012.454.037l16.63 13.334c.325.26.561.618.674 1.02l16.683 59.405c.093.328.267.627.507.868l17.377 17.496a2 2 0 003.12-.358l16.959-27.45c.202-.326.493-.587.838-.753l15.616-7.473a1.999 1.999 0 012.498.653l15.907 22.598a2 2 0 003.323-.079l15.331-24.136a2 2 0 012.945-.483L425.016 68.3a2 2 0 002.738-.21l16.804-18.504c.136-.15.248-.319.333-.502L454 29.468"
    stroke="#1CC760" stroke-width="2" stroke-linecap="round" stroke-linejoin="round" />
  <defs>
    <linearGradient id="prefix__paint0_linear_13_1659" x1="227.5" y1="1" x2="227.5" y2="161"
      gradientUnits="userSpaceOnUse">
      <stop stop-color="#1CC760" stop-opacity=".12" />
      <stop offset="1" stop-color="#1CC760" stop-opacity="0" />
    </linearGradient>
  </defs>
</svg>