<svg width="455" height="149" fill="none" xmlns="http://www.w3.org/2000/svg">
  <path
    d="M1 142.137l3.658 4.462a2 2 0 003.34-.383L42.682 75.88c.111-.226.265-.43.453-.6l17.473-15.785a2 2 0 00.547-.822l17.947-51.2c.548-1.562 2.648-1.82 3.558-.437l14.251 21.656a2 2 0 002.228.822l16.149-4.682a1.998 1.998 0 011.854.399l16.715 14.252c.091.077.187.146.29.206l24.939 14.56a2 2 0 002.68-.63L193.3 5.63a2 2 0 013.026-.374l27.86 25.644a2 2 0 002.771-.06l16.953-16.993a2.002 2.002 0 011.72-.564l14.942 2.297a1.999 1.999 0 001.507-.379l17.616-13.265a2 2 0 012.454.037l16.63 13.334c.325.26.561.618.674 1.02l16.683 59.405c.093.328.267.627.507.868l17.377 17.496a2 2 0 003.12-.358l16.959-27.45c.202-.326.493-.587.838-.753l15.616-7.473a1.999 1.999 0 012.498.653l15.907 22.598a2 2 0 003.323-.079l15.331-24.136a2 2 0 012.945-.483L425.016 68.3a2 2 0 002.738-.21l16.804-18.504c.136-.15.248-.319.333-.502L454 29.468"
    stroke="#1CC760" stroke-width="2" stroke-linecap="round" stroke-linejoin="round" />
</svg>