<svg width="705" height="631" fill="none" xmlns="http://www.w3.org/2000/svg">
  <ellipse cx="352.5" cy="460.732" rx="351.681" ry="121.553" stroke="#fff" stroke-opacity=".2" stroke-width=".865" />
  <path d="M622.226 401.47L228.352 628.754" stroke="#E60E12" stroke-width="2.595" stroke-linecap="round"
    stroke-linejoin="round" />
  <path d="M202.311 426.745V160.332h-10.892v269.841l10.892-3.428z" fill="#0D0D1E" stroke="#fff" stroke-width=".865"
    stroke-linecap="round" stroke-linejoin="round" />
  <path d="M202.397 432.615l12.978-3.433V167.881h-12.978" fill="#0D0D1E" />
  <path d="M202.397 432.615l12.978-3.433V167.881h-12.978" stroke="#fff" stroke-width=".865" stroke-linecap="round"
    stroke-linejoin="round" />
  <path d="M215.375 434.345l12.977-3.421V175.667h-12.977" fill="#0D0D1E" />
  <path d="M215.375 434.345l12.977-3.421V175.667h-12.977" stroke="#fff" stroke-width=".865" stroke-linecap="round"
    stroke-linejoin="round" />
  <path d="M228.352 438.671l11.246-3.431V185.184h-11.246" fill="#0D0D1E" />
  <path d="M228.352 438.671l11.246-3.431V185.184h-11.246" stroke="#fff" stroke-width=".865" stroke-linecap="round"
    stroke-linejoin="round" />
  <path d="M239.599 428.289l12.977-3.43V191.24h-12.977" fill="#0D0D1E" />
  <path d="M239.599 428.289l12.977-3.43V191.24h-12.977" stroke="#fff" stroke-width=".865" stroke-linecap="round"
    stroke-linejoin="round" />
  <path d="M252.576 442.997l11.247-3.429V200.757h-11.247" fill="#0D0D1E" />
  <path d="M252.576 442.997l11.247-3.429V200.757h-11.247" stroke="#fff" stroke-width=".865" stroke-linecap="round"
    stroke-linejoin="round" />
  <path d="M617.535 368.932l-28.649-16.523v7.316l9.302 5.372v22.419l7.341 4.233v-22.414l12.006 6.929v-7.332z"
    fill="#0D0D1E" stroke="#fff" stroke-width=".865" stroke-linecap="round" stroke-linejoin="round" />
  <path d="M617.535 368.932l-28.649-16.523v7.316l9.302 5.372v22.419l7.341 4.233v-22.414l12.006 6.929v-7.332z"
    fill="#0D0D1E" stroke="#fff" stroke-width=".865" stroke-linecap="round" stroke-linejoin="round" />
  <path d="M605.524 369.33v22.419L211.676 619.044l-.011-22.425L605.524 369.33z" fill="#0D0D1E" stroke="#fff"
    stroke-width=".865" stroke-linecap="round" stroke-linejoin="round" />
  <path d="M617.535 368.932l-28.649-16.523-393.859 227.285 28.633 16.523 393.875-227.285z" fill="#0D0D1E" stroke="#fff"
    stroke-width=".865" stroke-linecap="round" stroke-linejoin="round" />
  <path d="M617.535 368.932v7.332L223.66 603.549v-7.332l393.875-227.285z" fill="#0D0D1E" stroke="#fff"
    stroke-width=".865" stroke-linecap="round" stroke-linejoin="round" />
  <path d="M617.534 368.932v7.332L223.659 603.549v-7.332l393.875-227.285z" fill="#0D0D1E" stroke="#fff"
    stroke-width=".865" stroke-linecap="round" stroke-linejoin="round" />
  <path d="M223.666 596.222l-28.639-16.523v7.316l9.308 5.372v22.419l7.346 4.233-.01-22.414 11.995 6.924v-7.327z"
    fill="#0D0D1E" stroke="#fff" stroke-width=".865" stroke-linecap="round" stroke-linejoin="round" />
  <path
    d="M223.666 596.222l-28.639-16.523v7.316l9.308 5.372v22.419l7.346 4.233-.01-22.414 11.995 6.924v-7.327zM525.415 315.776l-28.639-16.529v7.332l9.308 5.361v22.42l7.33 4.233v-22.404l12.001 6.913v-7.326z"
    fill="#0D0D1E" stroke="#fff" stroke-width=".865" stroke-linecap="round" stroke-linejoin="round" />
  <path d="M525.415 315.776l-28.639-16.529v7.332l9.308 5.361v22.42l7.33 4.233v-22.404l12.001 6.913v-7.326z"
    fill="#0D0D1E" stroke="#fff" stroke-width=".865" stroke-linecap="round" stroke-linejoin="round" />
  <path d="M513.414 316.184v22.414L119.556 565.883v-22.415l393.858-227.284z" fill="#0D0D1E" stroke="#fff"
    stroke-width=".865" stroke-linecap="round" stroke-linejoin="round" />
  <path d="M525.414 315.776l-28.638-16.529-393.87 227.29 28.649 16.523 393.859-227.284z" fill="#0D0D1E" stroke="#fff"
    stroke-width=".865" stroke-linecap="round" stroke-linejoin="round" />
  <path d="M525.414 315.776l-28.638-16.529-393.87 227.29 28.649 16.523 393.859-227.284z" fill="#0D0D1E" stroke="#fff"
    stroke-width=".865" stroke-linecap="round" stroke-linejoin="round" />
  <path d="M525.413 315.776v7.326l-393.858 227.29v-7.332l393.858-227.284z" fill="#0D0D1E" stroke="#fff"
    stroke-width=".865" stroke-linecap="round" stroke-linejoin="round" />
  <path
    d="M525.413 315.776v7.326l-393.858 227.29v-7.332l393.858-227.284zM131.549 543.066l-28.633-16.529v7.332l9.302 5.361v22.42l7.336 4.233v-22.404l11.995 6.913v-7.326z"
    fill="#0D0D1E" stroke="#fff" stroke-width=".865" stroke-linecap="round" stroke-linejoin="round" />
  <path
    d="M131.549 543.066l-28.633-16.529v7.332l9.302 5.361v22.42l7.336 4.233v-22.404l11.995 6.913v-7.326zM336.523 566.174v-24.65l-160.105-92.248v24.655l160.105 92.243z"
    fill="#0D0D1E" stroke="#fff" stroke-width=".865" stroke-linecap="round" stroke-linejoin="round" />
  <path d="M336.523 566.174v-24.65l-160.105-92.248v24.655l160.105 92.243z" fill="#0D0D1E" stroke="#fff"
    stroke-width=".865" stroke-linecap="round" stroke-linejoin="round" />
  <path d="M168.584 478.456l7.956-4.593 159.983 92.316-7.946 4.593-159.993-92.316z" fill="#0D0D1E" stroke="#fff"
    stroke-width=".865" stroke-linecap="round" stroke-linejoin="round" />
  <path
    d="M168.584 478.456l7.956-4.593 159.983 92.316-7.946 4.593-159.993-92.316zM168.584 478.456v-24.661l-6.042-3.475v24.65l6.042 3.486z"
    fill="#0D0D1E" stroke="#fff" stroke-width=".865" stroke-linecap="round" stroke-linejoin="round" />
  <path
    d="M168.584 478.456v-24.661l-6.042-3.475v24.65l6.042 3.486zM334.604 574.253v-24.65l-6.042-3.491.021 24.655 6.021 3.486z"
    fill="#0D0D1E" stroke="#fff" stroke-width=".865" stroke-linecap="round" stroke-linejoin="round" />
  <path
    d="M334.604 574.253v-24.65l-6.042-3.491.021 24.655 6.021 3.486zM168.584 478.456v-24.661l7.829-4.508v24.644l-7.829 4.525z"
    fill="#0D0D1E" stroke="#fff" stroke-width=".865" stroke-linecap="round" stroke-linejoin="round" />
  <path
    d="M168.584 478.456v-24.661l7.829-4.508v24.644l-7.829 4.525zM223.927 510.385v-24.65l-6.037-3.486v24.65l6.037 3.486z"
    fill="#0D0D1E" stroke="#fff" stroke-width=".865" stroke-linecap="round" stroke-linejoin="round" />
  <path
    d="M223.927 510.385v-24.65l-6.037-3.486v24.65l6.037 3.486zM223.927 510.384v-24.649l7.828-4.519v24.644l-7.828 4.524z"
    fill="#0D0D1E" stroke="#fff" stroke-width=".865" stroke-linecap="round" stroke-linejoin="round" />
  <path
    d="M223.927 510.384v-24.649l7.828-4.519v24.644l-7.828 4.524zM279.261 542.319v-24.645l-6.022-3.496v24.66l6.022 3.481z"
    fill="#0D0D1E" stroke="#fff" stroke-width=".865" stroke-linecap="round" stroke-linejoin="round" />
  <path
    d="M279.261 542.319v-24.645l-6.022-3.496v24.66l6.022 3.481zM279.262 542.319v-24.645l7.828-4.524v24.65l-7.828 4.519z"
    fill="#0D0D1E" stroke="#fff" stroke-width=".865" stroke-linecap="round" stroke-linejoin="round" />
  <path d="M279.262 542.319v-24.645l7.828-4.524v24.65l-7.828 4.519z" fill="#0D0D1E" stroke="#fff" stroke-width=".865"
    stroke-linecap="round" stroke-linejoin="round" />
  <path d="M162.542 450.32l32.863-18.966 172.062 99.289-32.863 18.949-172.062-99.272z" fill="#0D0D1E" stroke="#fff"
    stroke-width=".865" stroke-linecap="round" stroke-linejoin="round" />
  <path
    d="M334.604 549.592l32.862-18.949v24.65l-32.862 18.955v-24.656zM304.328 503.095l-8.862 5.107 6.445 3.719 2.417-8.826z"
    fill="#0D0D1E" stroke="#fff" stroke-width=".865" stroke-linecap="round" stroke-linejoin="round" />
  <path
    d="M304.328 503.095l-8.862 5.107 6.445 3.719 2.417-8.826zM549.579 384.396v5.065L315.263 524.688v-5.064l234.316-135.228z"
    fill="#0D0D1E" stroke="#fff" stroke-width=".865" stroke-linecap="round" stroke-linejoin="round" />
  <path
    d="M549.579 384.396v5.065L315.263 524.688v-5.064l234.316-135.228zM541.3 364.858v14.754L306.979 514.84v-14.754L541.3 364.858z"
    fill="#0D0D1E" stroke="#fff" stroke-width=".865" stroke-linecap="round" stroke-linejoin="round" />
  <path d="M541.3 364.858v14.754L306.979 514.84v-14.754L541.3 364.858z" fill="#0D0D1E" stroke="#fff" stroke-width=".865"
    stroke-linecap="round" stroke-linejoin="round" />
  <path d="M549.579 364.572v5.065L315.263 504.864V499.8l234.316-135.228z" fill="#0D0D1E" stroke="#fff"
    stroke-width=".865" stroke-linecap="round" stroke-linejoin="round" />
  <path
    d="M549.579 364.572v5.065L315.263 504.864V499.8l234.316-135.228zM549.578 364.572l-19.781-11.416-234.326 135.227 19.791 11.417 234.316-135.228z"
    fill="#0D0D1E" stroke="#fff" stroke-width=".865" stroke-linecap="round" stroke-linejoin="round" />
  <path
    d="M549.578 364.572l-19.781-11.416-234.326 135.227 19.791 11.417 234.316-135.228zM549.578 384.396l-8.279-4.789-234.326 135.228 8.29 4.789 234.315-135.228z"
    fill="#0D0D1E" stroke="#fff" stroke-width=".865" stroke-linecap="round" stroke-linejoin="round" />
  <path d="M549.578 384.396l-8.279-4.789-234.326 135.228 8.29 4.789 234.315-135.228z" fill="#0D0D1E" stroke="#fff"
    stroke-width=".865" stroke-linecap="round" stroke-linejoin="round" />
  <path
    d="M315.268 504.864v-5.054l-19.802-11.427v5.065l6.445 3.703v14.765l-6.445-3.714v5.07l19.802 11.416v-5.059l-8.29-4.789v-14.754l8.29 4.778z"
    fill="#0D0D1E" stroke="#fff" stroke-width=".865" stroke-linecap="round" stroke-linejoin="round" />
  <path
    d="M315.268 504.864v-5.054l-19.802-11.427v5.065l6.445 3.703v14.765l-6.445-3.714v5.07l19.802 11.416v-5.059l-8.29-4.789v-14.754l8.29 4.778zM248.567 470.922l-8.825 5.107 6.419 3.719 2.406-8.826z"
    fill="#0D0D1E" stroke="#fff" stroke-width=".865" stroke-linecap="round" stroke-linejoin="round" />
  <path
    d="M248.567 470.922l-8.825 5.107 6.419 3.719 2.406-8.826zM489.192 355.185v5.064L259.518 492.515v-5.064l229.674-132.266z"
    fill="#0D0D1E" stroke="#fff" stroke-width=".865" stroke-linecap="round" stroke-linejoin="round" />
  <path
    d="M487.462 356.482v5.065L259.518 492.516v-5.065l227.944-130.969zM485.539 332.686v14.754l-234.31 135.227v-14.754l234.31-135.227z"
    fill="#0D0D1E" stroke="#fff" stroke-width=".865" stroke-linecap="round" stroke-linejoin="round" />
  <path d="M476.648 337.835v14.754L251.229 482.667v-14.754l225.419-130.078z" fill="#0D0D1E" stroke="#fff"
    stroke-width=".865" stroke-linecap="round" stroke-linejoin="round" />
  <path d="M477.946 341.58v5.064L243.619 481.872v-5.065L477.946 341.58z" fill="#0D0D1E" stroke="#fff"
    stroke-width=".865" stroke-linecap="round" stroke-linejoin="round" />
  <path d="M478.378 340.477v5.065l-218.86 127.155v-5.065l218.86-127.155z" fill="#0D0D1E" stroke="#fff"
    stroke-width=".865" stroke-linecap="round" stroke-linejoin="round" />
  <path d="M478.261 341.074l-19.781-11.411-218.743 126.543 19.782 11.427 218.742-126.559z" fill="#0D0D1E" stroke="#fff"
    stroke-width=".865" stroke-linecap="round" stroke-linejoin="round" />
  <path
    d="M479.243 340.477l-19.781-11.411-219.725 127.14 19.782 11.427 219.724-127.156zM487.544 356.075l-8.3-4.784-228.015 131.382 8.289 4.778 228.026-131.376z"
    fill="#0D0D1E" stroke="#fff" stroke-width=".865" stroke-linecap="round" stroke-linejoin="round" />
  <path
    d="M259.523 472.697v-5.065l-19.781-11.416v5.065l6.424 3.703v14.754l-6.424-3.703v5.059l19.781 11.416v-5.059l-8.289-4.779v-14.764l8.289 4.789z"
    fill="#0D0D1E" stroke="#fff" stroke-width=".865" stroke-linecap="round" stroke-linejoin="round" />
  <path
    d="M259.523 472.697v-5.065l-19.781-11.416v5.065l6.424 3.703v14.754l-6.424-3.703v5.059l19.781 11.416v-5.059l-8.289-4.779v-14.764l8.289 4.789zM192.945 438.861l-8.841 5.102 6.424 3.729 2.417-8.831z"
    fill="#0D0D1E" stroke="#fff" stroke-width=".865" stroke-linecap="round" stroke-linejoin="round" />
  <path
    d="M192.945 438.861l-8.841 5.102 6.424 3.729 2.417-8.831zM438.195 320.167v5.065l-234.31 135.212v-5.049l234.31-135.228z"
    fill="#0D0D1E" stroke="#fff" stroke-width=".865" stroke-linecap="round" stroke-linejoin="round" />
  <path
    d="M438.195 320.167v5.065l-234.31 135.212v-5.049l234.31-135.228zM429.921 300.625v14.759L195.589 450.601v-14.754l234.332-135.222z"
    fill="#0D0D1E" stroke="#fff" stroke-width=".865" stroke-linecap="round" stroke-linejoin="round" />
  <path d="M429.921 300.625v14.759L195.589 450.601v-14.754l234.332-135.222z" fill="#0D0D1E" stroke="#fff"
    stroke-width=".865" stroke-linecap="round" stroke-linejoin="round" />
  <path d="M438.195 300.344v5.064l-234.31 135.228v-5.07l234.31-135.222z" fill="#0D0D1E" stroke="#fff"
    stroke-width=".865" stroke-linecap="round" stroke-linejoin="round" />
  <path d="M438.195 300.344v5.064l-234.31 135.228v-5.07l234.31-135.222z" fill="#0D0D1E" stroke="#fff"
    stroke-width=".865" stroke-linecap="round" stroke-linejoin="round" />
  <path d="M438.195 300.344l-19.776-11.417-234.332 135.212 19.797 11.427 234.311-135.222z" fill="#0D0D1E" stroke="#fff"
    stroke-width=".865" stroke-linecap="round" stroke-linejoin="round" />
  <path
    d="M438.195 300.344l-19.776-11.417-234.332 135.212 19.797 11.427 234.311-135.222zM438.196 320.167l-8.274-4.789-234.326 135.228 8.29 4.789 234.31-135.228z"
    fill="#0D0D1E" stroke="#fff" stroke-width=".865" stroke-linecap="round" stroke-linejoin="round" />
  <path d="M438.196 320.167l-8.274-4.789-234.326 135.228 8.29 4.789 234.31-135.228z" fill="#0D0D1E" stroke="#fff"
    stroke-width=".865" stroke-linecap="round" stroke-linejoin="round" />
  <path
    d="M203.879 440.63v-5.064l-19.792-11.416v5.064l6.44 3.719v14.749l-6.424-3.714v5.064l19.776 11.417v-5.054l-8.29-4.789v-14.749l8.29 4.773z"
    fill="#0D0D1E" stroke="#fff" stroke-width=".865" stroke-linecap="round" stroke-linejoin="round" />
  <path
    d="M203.879 440.63v-5.064l-19.792-11.416v5.064l6.44 3.719v14.749l-6.424-3.714v5.064l19.776 11.417v-5.054l-8.29-4.789v-14.749l8.29 4.773z"
    fill="#0D0D1E" stroke="#fff" stroke-width=".865" stroke-linecap="round" stroke-linejoin="round" />
  <path
    d="M338.76 8.751c-40.978-23.627-107.366 14.696-148.306 85.594-40.946 70.898-40.93 147.539.037 171.156l71.858 39.023c-40.967-23.628-40.967-100.269-.037-171.167 40.966-70.898 107.354-109.216 148.305-85.594L338.76 8.75z"
    fill="url(#prefix__paint0_linear_1004_1350)" stroke="#fff" stroke-width=".865" stroke-linecap="round"
    stroke-linejoin="round" />
  <path
    d="M410.639 218.93c40.946-70.909 40.93-147.54-.037-171.162-40.94-23.627-107.339 14.696-148.295 85.594-40.935 70.898-40.935 147.539.032 171.162 40.956 23.627 107.354-14.696 148.295-85.594h.005z"
    fill="#0D0D1E" stroke="#E60E12" stroke-width="2.595" stroke-linecap="round" stroke-linejoin="round" />
  <path
    d="M372.401 196.452c14.391-24.915 14.369-51.843 0-60.144-14.401-8.307-37.739 5.154-52.114 30.074-14.391 24.91-14.391 51.838 0 60.139 14.391 8.296 37.718-5.154 52.114-30.069z"
    fill="#0D0D1E" stroke="#fff" stroke-width=".865" stroke-linecap="round" stroke-linejoin="round" />
  <path
    d="M372.401 196.452c14.391-24.915 14.369-51.843 0-60.144-14.401-8.307-37.739 5.154-52.114 30.074-14.391 24.91-14.391 51.838 0 60.139 14.391 8.296 37.718-5.154 52.114-30.069z"
    fill="#0D0D1E" stroke="#fff" stroke-width=".865" stroke-linecap="round" stroke-linejoin="round" />
  <path
    d="M363.985 131.45c-14.402-8.296-37.74 5.165-52.109 30.08-14.391 24.904-14.391 51.832 0 60.138l8.417 4.843c-14.385-8.297-14.385-35.224 0-60.139 14.38-24.91 37.707-38.376 52.109-30.07l-8.417-4.858v.006z"
    fill="#0D0D1E" stroke="#fff" stroke-width=".865" stroke-linecap="round" stroke-linejoin="round" />
  <path
    d="M363.985 131.45c-14.402-8.296-37.74 5.165-52.109 30.08-14.391 24.904-14.391 51.832 0 60.138l8.417 4.843c-14.385-8.297-14.385-35.224 0-60.139 14.38-24.91 37.707-38.376 52.109-30.07l-8.417-4.858v.006z"
    fill="#0D0D1E" stroke="#fff" stroke-width=".865" stroke-linecap="round" stroke-linejoin="round" />
  <path
    d="M334.036 214.824c0-10.887 3.578-23.834 10.776-36.294 7.209-12.45 16.627-22.049 26.057-27.495 9.413-5.441 18.859-6.733 26.057-2.575l-12.26-6.076-12.26-6.076c-7.198-4.154-16.638-2.856-26.067 2.585-9.419 5.435-18.859 15.029-26.047 27.495-7.198 12.449-10.786 25.412-10.786 36.294l24.536 12.142h-.006z"
    fill="#0D0D1E" stroke="#fff" stroke-width=".865" stroke-linecap="round" stroke-linejoin="round" />
  <path
    d="M334.036 214.824c0-10.887 3.578-23.834 10.776-36.294 7.209-12.45 16.627-22.049 26.057-27.495 9.413-5.441 18.859-6.733 26.057-2.575l-12.26-6.076-12.26-6.076c-7.198-4.154-16.638-2.856-26.067 2.585-9.419 5.435-18.859 15.029-26.047 27.495-7.198 12.449-10.786 25.412-10.786 36.294l24.536 12.142h-.006zM637.948 161.869c-4.776-8.296-21.758-7.481-26.571-4.71-4.776 2.765-4.776 11.734.021 20.036 4.792 8.296 12.552 12.783 17.354 10.012 4.786-2.77 13.998-17.042 9.196-25.338z"
    fill="#0D0D1E" stroke="#fff" stroke-width=".865" stroke-linecap="round" stroke-linejoin="round" />
  <path
    d="M637.948 161.869c-4.776-8.296-21.758-7.481-26.571-4.71-4.776 2.765-4.776 11.734.021 20.036 4.792 8.296 12.552 12.783 17.354 10.012 4.786-2.77 13.998-17.042 9.196-25.338z"
    fill="#2B0B22" stroke="#fff" stroke-width=".865" stroke-linecap="round" stroke-linejoin="round" />
  <path
    d="M391.111 304.407c-20.285-35.107-20.285-73.06 0-84.778 20.285-11.703 53.179 7.274 73.459 42.381 20.274 35.123 20.274 73.07 0 84.778-20.301 11.713-53.185-7.273-73.459-42.381z"
    fill="#0D0D1E" stroke="#fff" stroke-width=".865" stroke-linecap="round" stroke-linejoin="round" />
  <path
    d="M391.111 304.407c-20.285-35.107-20.285-73.06 0-84.778 20.285-11.703 53.179 7.274 73.459 42.381 20.274 35.123 20.274 73.07 0 84.778-20.301 11.713-53.185-7.273-73.459-42.381z"
    fill="#0D0D1E" stroke="#fff" stroke-width=".865" stroke-linecap="round" stroke-linejoin="round" />
  <path
    d="M546.616 129.797c20.285-11.703 53.185 7.268 73.459 42.392 20.284 35.107 20.263 73.07-.011 84.778l-155.493 89.826c20.279-11.702 20.279-49.665 0-84.778-20.274-35.107-53.169-54.089-73.459-42.381l155.504-89.837z"
    fill="url(#prefix__paint1_linear_1004_1350)" stroke="#fff" stroke-width="2.595" stroke-linecap="round"
    stroke-linejoin="round" />
  <path d="M517.638 369.473l-131.44-75.847-157.263 90.775 131.413 75.836 157.29-90.764z" fill="#0D0D1E" stroke="#fff"
    stroke-width=".865" stroke-linecap="round" stroke-linejoin="round" />
  <path
    d="M517.638 369.473l-131.44-75.847-157.263 90.775 131.413 75.836 157.29-90.764zM228.93 384.401l-.01 13.88 131.424 75.836v-13.875L228.93 384.401z"
    fill="#0D0D1E" stroke="#fff" stroke-width=".865" stroke-linecap="round" stroke-linejoin="round" />
  <path
    d="M228.93 384.401l-.01 13.88 131.424 75.836v-13.875L228.93 384.401zM517.639 369.473l.016 13.879-157.306 90.76v-13.875l157.29-90.764z"
    fill="#0D0D1E" stroke="#fff" stroke-width=".865" stroke-linecap="round" stroke-linejoin="round" />
  <path
    d="M517.639 369.473l.016 13.879-157.306 90.76v-13.875l157.29-90.764zM269.014 245.744v138.607l91.04 52.532V298.275l-91.04-52.531zM477.18 230.897v138.607l-116.768 67.392V298.288l116.768-67.391z"
    fill="#0D0D1E" stroke="#fff" stroke-width=".865" stroke-linecap="round" stroke-linejoin="round" />
  <path d="M477.18 230.897v138.607l-116.768 67.392V298.288l116.768-67.391z" fill="#0D0D1E" stroke="#fff"
    stroke-width=".865" stroke-linecap="round" stroke-linejoin="round" />
  <path d="M374.05 290.575l5.745-3.311 6.25 3.613-5.746 3.311-6.249-3.613z" fill="#0D0D1E" stroke="#fff"
    stroke-width=".865" stroke-linecap="round" stroke-linejoin="round" />
  <path d="M374.05 290.575l5.745-3.311 6.25 3.613-5.746 3.311-6.249-3.613z" fill="#0D0D1E" stroke="#fff"
    stroke-width=".865" stroke-linecap="round" stroke-linejoin="round" />
  <path d="M386.044 290.877l13.782 146.437-5.688 3.301-13.839-146.422 5.745-3.316z" fill="#0D0D1E" stroke="#fff"
    stroke-width=".865" stroke-linecap="round" stroke-linejoin="round" />
  <path d="M386.044 290.877l13.782 146.437-5.688 3.301-13.839-146.422 5.745-3.316z" fill="#0D0D1E" stroke="#fff"
    stroke-width=".865" stroke-linecap="round" stroke-linejoin="round" />
  <path d="M386.045 290.877l13.781 146.437M386.045 290.877l13.781 146.437" stroke="#fff" stroke-width=".865"
    stroke-linecap="round" stroke-linejoin="round" />
  <path d="M374.05 290.575v138.464l20.078 11.576-13.829-146.427-6.249-3.613z" fill="#0D0D1E" stroke="#fff"
    stroke-width=".865" stroke-linecap="round" stroke-linejoin="round" />
  <path
    d="M374.05 290.575v138.464l20.078 11.576-13.829-146.427-6.249-3.613zM271.132 253.926l-13.781 146.427 5.708 3.311 13.818-146.432-5.745-3.306z"
    fill="#0D0D1E" stroke="#fff" stroke-width=".865" stroke-linecap="round" stroke-linejoin="round" />
  <path d="M271.132 253.926l-13.781 146.427 5.708 3.311 13.818-146.432-5.745-3.306z" fill="#0D0D1E" stroke="#fff"
    stroke-width=".865" stroke-linecap="round" stroke-linejoin="round" />
  <path d="M283.126 253.618v138.46l-20.067 11.586 13.813-146.433 6.254-3.613z" fill="#0D0D1E" stroke="#fff"
    stroke-width=".865" stroke-linecap="round" stroke-linejoin="round" />
  <path d="M283.126 253.618v138.46l-20.067 11.586 13.813-146.433 6.254-3.613z" fill="#0D0D1E" stroke="#fff"
    stroke-width=".865" stroke-linecap="round" stroke-linejoin="round" />
  <path d="M271.132 253.926l-13.781 146.427" stroke="#fff" stroke-width=".865" stroke-linecap="round"
    stroke-linejoin="round" />
  <path d="M420.248 263.97l6.838-3.947 20.046 11.592-6.838 3.946-20.046-11.591z" fill="#0D0D1E" stroke="#fff"
    stroke-width=".865" stroke-linecap="round" stroke-linejoin="round" />
  <path
    d="M420.248 263.97l6.838-3.947 20.046 11.592-6.838 3.946-20.046-11.591zM447.132 271.615l.01 138.459-6.816 3.931-.032-138.444 6.838-3.946z"
    fill="#0D0D1E" stroke="#fff" stroke-width=".865" stroke-linecap="round" stroke-linejoin="round" />
  <path d="M447.132 271.615l.01 138.459-6.816 3.931-.032-138.444 6.838-3.946z" fill="#0D0D1E" stroke="#fff"
    stroke-width=".865" stroke-linecap="round" stroke-linejoin="round" />
  <path d="M447.132 271.615l.01 138.459" stroke="#fff" stroke-width=".865" stroke-linecap="round"
    stroke-linejoin="round" />
  <path d="M420.248 263.97v138.459l20.089 11.576-.043-138.444-20.046-11.591z" fill="#0D0D1E" stroke="#fff"
    stroke-width=".865" stroke-linecap="round" stroke-linejoin="round" />
  <path
    d="M420.248 263.97v138.459l20.089 11.576-.043-138.444-20.046-11.591zM454.579 243.956l6.838-3.947 20.056 11.575-6.842 3.947-20.052-11.575z"
    fill="#0D0D1E" stroke="#fff" stroke-width=".865" stroke-linecap="round" stroke-linejoin="round" />
  <path
    d="M454.579 243.956l6.838-3.947 20.056 11.575-6.842 3.947-20.052-11.575zM481.48 251.59l.011 138.459-6.827 3.946-.021-138.459 6.837-3.946z"
    fill="#0D0D1E" stroke="#fff" stroke-width=".865" stroke-linecap="round" stroke-linejoin="round" />
  <path d="M481.48 251.59l.011 138.459-6.827 3.946-.021-138.459 6.837-3.946z" fill="#0D0D1E" stroke="#fff"
    stroke-width=".865" stroke-linecap="round" stroke-linejoin="round" />
  <path d="M481.479 251.59l.01 138.459" stroke="#fff" stroke-width=".865" stroke-linecap="round"
    stroke-linejoin="round" />
  <path d="M454.579 243.956l.005 138.443 20.084 11.591-.037-138.459-20.052-11.575z" fill="#0D0D1E" stroke="#fff"
    stroke-width=".865" stroke-linecap="round" stroke-linejoin="round" />
  <path
    d="M454.579 243.956l.005 138.443 20.084 11.591-.037-138.459-20.052-11.575zM290.953 362.097c-5.926-10.277-5.926-21.379.009-24.805 5.944-3.43 15.563 2.126 21.498 12.398 5.935 10.277 5.935 21.388 0 24.818-5.935 3.416-15.554-2.135-21.507-12.411z"
    fill="#0D0D1E" stroke="#fff" stroke-width=".865" stroke-linecap="round" stroke-linejoin="round" />
  <path
    d="M297.627 333.445c5.935-3.43 15.576 2.126 21.498 12.398 5.935 10.272 5.935 21.387 0 24.804l-6.667 3.856c5.936-3.43 5.936-14.541 0-24.818-5.935-10.276-15.557-15.827-21.497-12.397l6.666-3.847v.004zM334.667 290.887l-13.808 146.422 5.735 3.311 13.792-146.432-5.719-3.301z"
    fill="#0D0D1E" stroke="#fff" stroke-width=".865" stroke-linecap="round" stroke-linejoin="round" />
  <path d="M334.667 290.887l-13.808 146.422 5.735 3.311 13.792-146.432-5.719-3.301z" fill="#0D0D1E" stroke="#fff"
    stroke-width=".865" stroke-linecap="round" stroke-linejoin="round" />
  <path d="M346.647 290.575v138.464l-20.057 11.576 13.807-146.427 6.25-3.613z" fill="#0D0D1E" stroke="#fff"
    stroke-width=".865" stroke-linecap="round" stroke-linejoin="round" />
  <path d="M346.647 290.575v138.464l-20.057 11.576 13.807-146.427 6.25-3.613z" fill="#0D0D1E" stroke="#fff"
    stroke-width=".865" stroke-linecap="round" stroke-linejoin="round" />
  <path d="M334.667 290.887l-13.808 146.422" stroke="#fff" stroke-width=".865" stroke-linecap="round"
    stroke-linejoin="round" />
  <path d="M489.763 219.38l-104.068-60.07-129.071 74.501 104.074 60.054 129.065-74.485z" fill="#0D0D1E" stroke="#fff"
    stroke-width=".865" stroke-linecap="round" stroke-linejoin="round" />
  <path d="M489.763 219.38l-104.068-60.07-129.071 74.501 104.074 60.054 129.065-74.485z" fill="#0D0D1E" stroke="#fff"
    stroke-width=".865" stroke-linecap="round" stroke-linejoin="round" />
  <path d="M256.63 233.811l-.011 11.84L360.698 305.7l-.01-11.835-104.058-60.054z" fill="#0D0D1E" stroke="#fff"
    stroke-width=".865" stroke-linecap="round" stroke-linejoin="round" />
  <path
    d="M256.63 233.811l-.011 11.84L360.698 305.7l-.01-11.835-104.058-60.054zM489.763 219.38v11.83L360.708 305.7l-.011-11.835 129.066-74.485z"
    fill="#0D0D1E" stroke="#fff" stroke-width=".865" stroke-linecap="round" stroke-linejoin="round" />
  <path
    d="M489.763 219.38v11.83L360.708 305.7l-.011-11.835 129.066-74.485zM482.104 172.273c-2.83-6.431-7.081-11.543-12.758-14.807-5.676-3.279-12.228-4.397-19.224-3.639l-43.708 25.227c-7.001 7.316-13.537 16.004-19.224 25.821-5.666 9.827-9.912 19.84-12.758 29.55-2.831 9.7-4.251 19.103-4.251 27.68l58.103-33.523 30.96-17.869v6.972h27.117v-22.637c0-8.572-1.416-16.328-4.251-22.775h-.006z"
    fill="#0D0D1E" stroke="#fff" stroke-width=".865" stroke-linecap="round" stroke-linejoin="round" />
  <path
    d="M482.104 172.273c-2.83-6.431-7.081-11.543-12.758-14.807-5.676-3.279-12.228-4.397-19.224-3.639l-43.708 25.227c-7.001 7.316-13.537 16.004-19.224 25.821-5.666 9.827-9.912 19.84-12.758 29.55-2.831 9.7-4.251 19.103-4.251 27.68l58.103-33.523 30.96-17.869v6.972h27.117v-22.637c0-8.572-1.416-16.328-4.251-22.775h-.006z"
    fill="#0D0D1E" stroke="#fff" stroke-width=".865" stroke-linecap="round" stroke-linejoin="round" />
  <path
    d="M450.127 153.822c6.997-.758 13.538.37 19.225 3.65l-58.443-33.72c-5.666-3.279-12.228-4.407-19.203-3.639l58.421 33.709z"
    fill="#0D0D1E" stroke="#fff" stroke-width=".865" stroke-linecap="round" stroke-linejoin="round" />
  <path
    d="M450.127 153.822c6.997-.758 13.538.37 19.225 3.65l-58.443-33.72c-5.666-3.279-12.228-4.407-19.203-3.639l58.421 33.709zM406.42 179.06l43.707-25.238-58.421-33.709-43.728 25.238 58.442 33.709z"
    fill="#0D0D1E" stroke="#fff" stroke-width=".865" stroke-linecap="round" stroke-linejoin="round" />
  <path
    d="M406.42 179.06l43.707-25.238-58.421-33.709-43.728 25.238 58.442 33.709zM406.419 179.06c-7.002 7.305-13.543 16.004-19.225 25.82-5.666 9.817-9.922 19.84-12.758 29.54-2.831 9.71-4.251 19.103-4.251 27.685l-58.421-33.719c0-8.572 1.415-17.975 4.251-27.686 2.83-9.7 7.081-19.723 12.758-29.539 5.661-9.817 12.228-18.505 19.203-25.81l58.443 33.709z"
    fill="#0D0D1E" stroke="#fff" stroke-width=".865" stroke-linecap="round" stroke-linejoin="round" />
  <path
    d="M406.419 179.06c-7.002 7.305-13.543 16.004-19.225 25.82-5.666 9.817-9.922 19.84-12.758 29.54-2.831 9.71-4.251 19.103-4.251 27.685l-58.421-33.719c0-8.572 1.415-17.975 4.251-27.686 2.83-9.7 7.081-19.723 12.758-29.539 5.661-9.817 12.228-18.505 19.203-25.81l58.443 33.709zM415.965 262.1c0-10.887 3.594-23.845 10.776-36.294 7.209-12.45 16.638-22.049 26.057-27.495 9.44-5.446 18.87-6.733 26.057-2.575L466.6 189.66l-12.27-6.076c-7.198-4.154-16.617-2.866-26.068 2.58-9.418 5.44-18.832 15.04-26.046 27.494-7.198 12.46-10.786 25.418-10.776 36.305l24.525 12.142v-.005z"
    fill="#0D0D1E" stroke="#fff" stroke-width=".865" stroke-linecap="round" stroke-linejoin="round" />
  <path
    d="M415.965 262.1c0-10.887 3.594-23.845 10.776-36.294 7.209-12.45 16.638-22.049 26.057-27.495 9.44-5.446 18.87-6.733 26.057-2.575L466.6 189.66l-12.27-6.076c-7.198-4.154-16.617-2.866-26.068 2.58-9.418 5.44-18.832 15.04-26.046 27.494-7.198 12.46-10.786 25.418-10.776 36.305l24.525 12.142v-.005z"
    fill="#0D0D1E" stroke="#fff" stroke-width=".865" stroke-linecap="round" stroke-linejoin="round" />
  <path d="M447.393 201.564l-22.707-33.237v20.221l22.707 13.016z" fill="#0D0D1E" stroke="#fff" stroke-width=".865"
    stroke-linecap="round" stroke-linejoin="round" />
  <path
    d="M447.393 201.564l-22.707-33.237v20.221l22.707 13.016zM447.393 201.564l3.413-2.395 3.424-1.976-22.707-32.819-6.837 3.952 22.707 33.238z"
    fill="#0D0D1E" stroke="#fff" stroke-width=".865" stroke-linecap="round" stroke-linejoin="round" />
  <path d="M447.393 201.564l3.413-2.395 3.424-1.976-22.707-32.819-6.837 3.952 22.707 33.238z" fill="#0D0D1E"
    stroke="#fff" stroke-width=".865" stroke-linecap="round" stroke-linejoin="round" />
  <path d="M454.234 197.193l-22.707-32.819" stroke="#fff" stroke-width=".865" stroke-linecap="round"
    stroke-linejoin="round" />
  <path
    d="M487.272 260.723c14.391-24.91 14.391-51.838 0-60.139-14.39-8.307-37.718 5.154-52.108 30.069-14.37 24.915-14.37 51.843 0 60.139 14.401 8.307 37.739-5.155 52.108-30.069z"
    fill="#0D0D1E" stroke="#fff" stroke-width=".865" stroke-linecap="round" stroke-linejoin="round" />
  <path
    d="M487.272 260.723c14.391-24.91 14.391-51.838 0-60.139-14.39-8.307-37.718 5.154-52.108 30.069-14.37 24.915-14.37 51.843 0 60.139 14.401 8.307 37.739-5.155 52.108-30.069z"
    fill="#0D0D1E" stroke="#fff" stroke-width=".865" stroke-linecap="round" stroke-linejoin="round" />
  <path
    d="M478.854 195.726c-14.391-8.296-37.718 5.165-52.114 30.08-14.39 24.904-14.39 51.832 0 60.139l8.417 4.842c-14.369-8.296-14.369-35.224 0-60.139 14.391-24.915 37.734-38.376 52.114-30.069l-8.417-4.858v.005z"
    fill="#0D0D1E" stroke="#fff" stroke-width=".865" stroke-linecap="round" stroke-linejoin="round" />
  <path
    d="M478.854 195.726c-14.391-8.296-37.718 5.165-52.114 30.08-14.39 24.904-14.39 51.832 0 60.139l8.417 4.842c-14.369-8.296-14.369-35.224 0-60.139 14.391-24.915 37.734-38.376 52.114-30.069l-8.417-4.858v.005z"
    fill="#0D0D1E" stroke="#fff" stroke-width=".865" stroke-linecap="round" stroke-linejoin="round" />
  <path
    d="M444.615 279c1.102-1.897 1.102-3.958 0-4.588-1.108-.647-2.878.392-3.965 2.288-1.102 1.907-1.102 3.968 0 4.604 1.081.63 2.878-.403 3.965-2.304zM481.362 214.363c1.103-1.896 1.103-3.963 0-4.604-1.107-.635-2.878.403-3.985 2.3-1.092 1.912-1.092 3.962 0 4.603 1.107.625 2.878-.402 3.985-2.299zM489.366 231.702c1.108-1.902 1.108-3.962 0-4.593-1.081-.646-2.878.392-3.986 2.289-1.081 1.912-1.081 3.968 0 4.603 1.108.631 2.9-.402 3.986-2.299zM437.198 261.533c1.082-1.896 1.082-3.957 0-4.603-1.118-.631-2.894.392-3.996 2.304-1.103 1.897-1.103 3.957 0 4.588 1.108.646 2.878-.392 3.996-2.289zM444.911 236.205c1.108-1.896 1.108-3.957 0-4.588-1.102-.63-2.878.392-3.997 2.3-1.081 1.896-1.081 3.962 0 4.593 1.119.63 2.895-.392 3.997-2.305zM462.578 277.765c1.103-1.902 1.103-3.962 0-4.593-1.108-.63-2.878.392-3.986 2.289-1.081 1.912-1.081 3.968 0 4.593 1.108.641 2.878-.382 3.986-2.289zM463.24 216.403c1.108-1.897 1.108-3.958 0-4.588-1.108-.631-2.889.402-3.996 2.299-1.082 1.897-1.082 3.963 0 4.593 1.107.631 2.888-.392 3.996-2.304zM474.536 222.988c-7.013-4.048-18.377 2.521-25.4 14.663-7.012 12.143-7.012 25.26 0 29.307l7.877 4.545c-7.013-4.042-7.013-17.169 0-29.312 7.012-12.142 18.403-18.695 25.41-14.658l-7.887-4.545z"
    fill="#0D0D1E" stroke="#fff" stroke-width=".865" stroke-linecap="round" stroke-linejoin="round" />
  <path
    d="M474.536 222.988c-7.013-4.048-18.377 2.521-25.4 14.663-7.012 12.143-7.012 25.26 0 29.307l7.877 4.545c-7.013-4.042-6.41-17.077.602-29.22 7.013-12.142 17.801-18.787 24.808-14.75l-7.887-4.545z"
    fill="#0D0D1E" stroke="#fff" stroke-width=".865" stroke-linecap="round" stroke-linejoin="round" />
  <path d="M478.855 195.726l-24.525-12.153" stroke="#fff" stroke-width=".865" stroke-linecap="round"
    stroke-linejoin="round" />
  <path
    d="M458.006 242.761h.001c3.455-6.071 7.957-10.687 12.379-13.275 4.456-2.608 8.571-3.032 11.541-1.298 2.972 1.746 4.67 5.585 4.67 10.811 0 5.183-1.693 11.448-5.143 17.525-3.453 6.063-7.948 10.679-12.367 13.266-4.452 2.607-8.57 3.033-11.554 1.289h0c-2.975-1.738-4.677-5.575-4.677-10.802 0-5.183 1.695-11.448 5.15-17.516z"
    fill="#0D0D1E" stroke="#E60E12" stroke-width="2.595" stroke-linecap="round" stroke-linejoin="round" />
  <path
    d="M408.327 46.52L338.76 8.75c-40.978-23.627-107.366 14.696-148.306 85.594-40.946 70.898-40.93 147.539.037 171.156l.928.504v153.903l-7.332 4.231 7.332 4.232v.008l-7.332-4.229v5.064l6.44 3.719v1.236l-27.985 16.151v24.65l6.042 3.486 8.821 5.09-74.499 42.991.011.006v7.326l9.302 5.361v22.42l7.336 4.232 100.268-57.861 49.705 28.68-74.501 42.993m213.3-533.174l.494.268m-.494-.268c.772.393 1.536.807 2.29 1.243l-.531-.288c.173.096.345.194.516.293 25.672 14.803 35.263 50.423 28.77 92.406l29.695 17.133.083.047.078.045.118.067c4.437 2.551 8.003 6.232 10.701 10.789l66.568-38.458c17.314-9.988 43.817 2.369 63.817 28.042a5.85 5.85 0 01.944-.68c4.813-2.771 21.796-3.586 26.571 4.71 4.803 8.296-4.41 22.568-9.196 25.338-.344.199-.704.36-1.076.486 12.244 30.151 9.696 59.279-7.612 69.274l-98.226 56.744 3.576 2.065.001 7.326-12 6.925v8.571l-24.654 13.811 2.022 1.165 3.062 2.169 15.736 9.08 20.217-11.667 19.781 11.416v5.065l-8.278 4.777v5.193l.227.132 47.359-27.33 28.649 16.523v7.332l-12.005 6.928v8.557l-.006-.003v.003l-239.363 138.14 1.305.754v24.65l-32.862 18.954v.006l-6.019-3.485-.008.004-16.63-9.595-100.271 57.867v-.008l-7.341-4.23v-22.419l-9.308-5.372v-7.316m-1.596-150.159l.008-.003"
    stroke="#fff" stroke-width="2.595" stroke-linecap="round" stroke-linejoin="round" />
  <defs>
    <linearGradient id="prefix__paint0_linear_1004_1350" x1="260.081" y1="152.683" x2="347.356" y2="127.271"
      gradientUnits="userSpaceOnUse">
      <stop stop-color="#0D0D1E" />
      <stop offset="1" stop-color="#2B0B22" />
    </linearGradient>
    <linearGradient id="prefix__paint1_linear_1004_1350" x1="532.45" y1="227.576" x2="565.758" y2="169.179"
      gradientUnits="userSpaceOnUse">
      <stop stop-color="#0D0D1E" />
      <stop offset="1" stop-color="#2B0B22" />
    </linearGradient>
  </defs>
</svg>