<svg width="815" height="796" fill="none" xmlns="http://www.w3.org/2000/svg">
  <ellipse cx="407.5" cy="654.5" rx="406.5" ry="140.5" stroke="#fff" stroke-opacity=".2" />
  <path d="M443.103 704.408l.01 20.103-32.904 18.969v-20.079l32.894-18.993z" fill="#0D0D1E" stroke="#fff"
    stroke-linecap="round" stroke-linejoin="round" />
  <path
    d="M443.103 704.408l.01 20.103-32.904 18.969v-20.079l32.894-18.993zM177.898 589.348l-.003 20.086L410.209 743.48v-20.079L177.898 589.348z"
    fill="#0D0D1E" stroke="#fff" stroke-linecap="round" stroke-linejoin="round" />
  <path
    d="M177.898 589.348l-.003 20.086L410.209 743.48v-20.079L177.898 589.348zM636.918 591.871L392.427 450.773 177.896 565.301l252.526 145.717 206.496-119.147z"
    fill="#0D0D1E" stroke="#fff" stroke-linecap="round" stroke-linejoin="round" />
  <path d="M636.918 591.871L392.427 450.773 177.896 565.301l252.526 145.717 206.496-119.147z" fill="#0D0D1E"
    stroke="#fff" stroke-linecap="round" stroke-linejoin="round" />
  <path d="M392.418 141.099l.01 309.671-214.523 114.531-.01-309.649 214.523-114.553z" fill="#0D0D1E" stroke="#fff"
    stroke-linecap="round" stroke-linejoin="round" />
  <path d="M392.418 141.099l.01 309.671-214.523 114.531-.01-309.649 214.523-114.553z" fill="#0D0D1E" stroke="#fff"
    stroke-linecap="round" stroke-linejoin="round" />
  <path d="M668.56 146.73L416.028 1 177.895 138.423l252.535 145.72L668.56 146.73z" fill="#0D0D1E" stroke="#fff"
    stroke-linecap="round" stroke-linejoin="round" />
  <path d="M668.56 146.73L416.028 1 177.895 138.423l252.535 145.72L668.56 146.73z"
    fill="url(#prefix__paint0_linear_1025_5171)" stroke="#fff" stroke-linecap="round" stroke-linejoin="round" />
  <path
    d="M205.756 215.278l196.812 113.571v390.142l27.862 16.066V284.146L177.894 138.419l-.007 450.939 27.858 16.076.011-390.156z"
    fill="#0D0D1E" stroke="#fff" stroke-linecap="round" stroke-linejoin="round" />
  <path
    d="M205.756 215.278l196.812 113.571v390.142l27.862 16.066V284.146L177.894 138.419l-.007 450.939 27.858 16.076.011-390.156z"
    fill="#0D0D1E" stroke="#fff" stroke-linecap="round" stroke-linejoin="round" />
  <path d="M668.559 146.73v450.731L430.43 734.863v-450.72L668.559 146.73z" fill="url(#prefix__paint1_linear_1025_5171)"
    stroke="#fff" stroke-linecap="round" stroke-linejoin="round" />
  <path d="M416.03 1l-.007 9.175L650.96 145.77l7.64-4.786L416.03 1z" fill="#0D0D1E" stroke="#fff" stroke-linecap="round"
    stroke-linejoin="round" />
  <path d="M416.03 1l-.007 9.175L650.96 145.77l7.64-4.786L416.03 1z" fill="#0D0D1E" stroke="#fff" stroke-linecap="round"
    stroke-linejoin="round" />
  <path d="M416.03 1v9.175L186.052 142.898l-8.162-4.475L416.03 1z" fill="#0D0D1E" stroke="#fff" stroke-linecap="round"
    stroke-linejoin="round" />
  <path
    d="M416.03 1v9.175L186.052 142.898l-8.162-4.475L416.03 1zM169.909 572.482l-.007 17.298 227.662 131.36v-17.312L169.909 572.482z"
    fill="#0D0D1E" stroke="#fff" stroke-linecap="round" stroke-linejoin="round" />
  <path d="M389.12 701.152v7.563l8.448-4.887v17.305l6.55-3.769v-24.868l-14.998 8.656z" fill="#0D0D1E" stroke="#fff"
    stroke-linecap="round" stroke-linejoin="round" />
  <path
    d="M161.454 569.932l14.998-8.662 227.655 131.359-14.998 8.649-227.655-131.346zM209.293 607.154v59.683l132.672 76.556v-59.679l-132.672-76.56z"
    fill="#0D0D1E" stroke="#fff" stroke-linecap="round" stroke-linejoin="round" />
  <path d="M209.293 607.154v59.683l132.672 76.556v-59.679l-132.672-76.56z" fill="#0D0D1E" stroke="#fff"
    stroke-linecap="round" stroke-linejoin="round" />
  <path d="M209.301 666.837l7.835 24.388 132.679 76.549-7.846-24.381-132.668-76.556z" fill="#0D0D1E" stroke="#fff"
    stroke-linecap="round" stroke-linejoin="round" />
  <path
    d="M209.301 666.837l7.835 24.388 132.679 76.549-7.846-24.381-132.668-76.556zM346.925 740.532v-53.655l-4.955-3.167v59.683l7.845 24.381 4.952-2.858-7.842-24.384z"
    fill="#0D0D1E" stroke="#fff" stroke-linecap="round" stroke-linejoin="round" />
  <path
    d="M346.925 740.532v-53.655l-4.955-3.167v59.683l7.845 24.381 4.952-2.858-7.842-24.384zM235.519 597.579l13.19-7.615 113.043 65.224-13.195 7.605-113.038-65.214z"
    fill="#0D0D1E" stroke="#fff" stroke-linecap="round" stroke-linejoin="round" />
  <path d="M235.519 597.579l13.19-7.615 113.043 65.224-13.195 7.605-113.038-65.214z" fill="#0D0D1E" stroke="#fff"
    stroke-linecap="round" stroke-linejoin="round" />
  <path d="M572.288 90.556l-19.713-11.381-216.142 124.722" stroke="#fff" stroke-linecap="round"
    stroke-linejoin="round" />
  <path d="M668.559 146.73l-29.938-17.266-238.133 137.409 29.941 17.27 238.13-137.413z" fill="#0D0D1E" stroke="#fff"
    stroke-linecap="round" stroke-linejoin="round" />
  <path d="M447.127 269.493l-130.273-75.181-16.663 9.616 130.28 75.182 16.656-9.617z" fill="#0D0D1E" stroke="#fff"
    stroke-linecap="round" stroke-linejoin="round" />
  <path
    d="M447.127 269.493l-130.273-75.181-16.663 9.616 130.28 75.182 16.656-9.617zM300.188 203.928v5.016l130.235 75.199.045-5.033-130.28-75.182z"
    fill="#0D0D1E" stroke="#fff" stroke-linecap="round" stroke-linejoin="round" />
  <path
    d="M300.188 203.928v5.016l130.235 75.199.045-5.033-130.28-75.182zM447.128 269.493l.01 5.012-16.711 9.637.045-5.032 16.656-9.617z"
    fill="#0D0D1E" stroke="#fff" stroke-linecap="round" stroke-linejoin="round" />
  <path
    d="M447.128 269.493l.01 5.012-16.711 9.637.045-5.032 16.656-9.617zM346.085 178.97l-29.241-16.877-16.68 9.627 29.251 16.874 16.67-9.624z"
    fill="#0D0D1E" stroke="#fff" stroke-linecap="round" stroke-linejoin="round" />
  <path d="M346.085 178.97l-29.241-16.877-16.68 9.627 29.251 16.874 16.67-9.624z" fill="#0D0D1E" stroke="#fff"
    stroke-linecap="round" stroke-linejoin="round" />
  <path d="M300.168 171.72v32.208l29.241 16.874v-32.205l-29.241-16.877z" fill="#0D0D1E" stroke="#fff"
    stroke-linecap="round" stroke-linejoin="round" />
  <path
    d="M300.168 171.72v32.208l29.241 16.874v-32.205l-29.241-16.877zM346.085 178.97v32.222l-16.67 9.609v-32.208l16.67-9.623z"
    fill="#0D0D1E" stroke="#fff" stroke-linecap="round" stroke-linejoin="round" />
  <path d="M346.085 178.97v32.222l-16.67 9.609v-32.208l16.67-9.623z" fill="#0D0D1E" stroke="#fff" stroke-linecap="round"
    stroke-linejoin="round" />
  <path d="M346.085 211.185v-32.219L316.844 162.1l-16.68 9.62.024 37.224" stroke="#fff" stroke-linecap="round"
    stroke-linejoin="round" />
  <path d="M373.407 207.078l-18.254-10.532-16.611 9.586 18.251 10.531 16.614-9.585z" fill="#0D0D1E" stroke="#fff"
    stroke-linecap="round" stroke-linejoin="round" />
  <path
    d="M373.407 207.078l-18.254-10.532-16.611 9.586 18.251 10.531 16.614-9.585zM338.539 206.131v20.114l18.254 10.514v-20.092l-18.254-10.536z"
    fill="#0D0D1E" stroke="#fff" stroke-linecap="round" stroke-linejoin="round" />
  <path
    d="M338.539 206.131v20.114l18.254 10.514v-20.092l-18.254-10.536zM373.408 207.078v20.11l-16.614 9.578v-20.103l16.614-9.585z"
    fill="#0D0D1E" stroke="#fff" stroke-linecap="round" stroke-linejoin="round" />
  <path d="M373.408 207.078v20.11l-16.614 9.578v-20.103l16.614-9.585z" fill="#0D0D1E" stroke="#fff"
    stroke-linecap="round" stroke-linejoin="round" />
  <path d="M373.407 227.185v-20.11l-18.254-10.532-16.611 9.589v20.11" stroke="#fff" stroke-linecap="round"
    stroke-linejoin="round" />
  <path d="M414.15 60.032L395.896 49.5 220.04 150.976l18.254 10.532L414.15 60.032z" fill="#0D0D1E" stroke="#fff"
    stroke-linecap="round" stroke-linejoin="round" />
  <path d="M414.15 60.032L395.896 49.5 220.04 150.976l18.254 10.532L414.15 60.032z" fill="#0D0D1E" stroke="#fff"
    stroke-linecap="round" stroke-linejoin="round" />
  <path d="M220.047 150.977l-.007 11.739 18.258 10.532v-11.74l-18.251-10.531z" fill="#0D0D1E" stroke="#fff"
    stroke-linecap="round" stroke-linejoin="round" />
  <path d="M220.047 150.977l-.007 11.739 18.258 10.532v-11.74l-18.251-10.531z" fill="#0D0D1E" stroke="#fff"
    stroke-linecap="round" stroke-linejoin="round" />
  <path d="M414.151 60.032l.007 11.743-175.863 101.473v-11.739L414.151 60.032z" fill="#0D0D1E" stroke="#fff"
    stroke-linecap="round" stroke-linejoin="round" />
  <path
    d="M414.151 60.032l.007 11.743-175.863 101.473v-11.739L414.151 60.032zM253.279 226.764l-.045 365.821-17.429 10.037.017-365.782 17.457-10.076z"
    fill="#0D0D1E" stroke="#fff" stroke-linecap="round" stroke-linejoin="round" />
  <path d="M253.279 226.764l-.045 365.821-17.429 10.037.017-365.782 17.457-10.076z" fill="#0D0D1E" stroke="#fff"
    stroke-linecap="round" stroke-linejoin="round" />
  <path
    d="M245.496 231.208v365.8l7.741-4.423.045-365.821-7.786 4.444zM341.742 279.322l-.011 30.43 57.462 33.151-.007-30.422-57.444-33.159z"
    fill="#0D0D1E" stroke="#fff" stroke-linecap="round" stroke-linejoin="round" />
  <path d="M341.742 279.322l-.011 30.43 57.462 33.151-.007-30.422-57.444-33.159z" fill="#0D0D1E" stroke="#fff"
    stroke-linecap="round" stroke-linejoin="round" />
  <path
    d="M388.055 701.549l-.007-422.688-154.756-89.333-19.003 10.988-10.726-6.196-.01 431.101 165.492 95.476v-8.398l19.01-10.95z"
    fill="#0D0D1E" stroke="#fff" stroke-linecap="round" stroke-linejoin="round" />
  <path
    d="M388.055 701.549l-.007-422.688-154.756-89.333-19.003 10.988-10.726-6.196-.01 431.101 165.492 95.476v-8.398l19.01-10.95z"
    fill="#0D0D1E" stroke="#fff" stroke-linecap="round" stroke-linejoin="round" />
  <path d="M245.336 192.563l-.013 420.422-32.027 18.478.007-420.415 32.033-18.485z" fill="#0D0D1E" stroke="#fff"
    stroke-linecap="round" stroke-linejoin="round" />
  <path d="M245.336 192.563l-.013 420.422-32.027 18.478.007-420.415 32.033-18.485z" fill="#0D0D1E" stroke="#fff"
    stroke-linecap="round" stroke-linejoin="round" />
  <path d="M245.096 192.688l-.014 420.44 71.756 41.4.004-420.44-71.746-41.4z" fill="#0D0D1E" stroke="#fff"
    stroke-linecap="round" stroke-linejoin="round" />
  <path d="M245.096 192.688l-.014 420.44 71.756 41.4.004-420.44-71.746-41.4z" fill="#0D0D1E" stroke="#fff"
    stroke-linecap="round" stroke-linejoin="round" />
  <path d="M316.849 234.092l-.017 420.436 74.274 42.845v-420.43l-74.257-42.851z" fill="#0D0D1E" stroke="#fff"
    stroke-linecap="round" stroke-linejoin="round" />
  <path d="M316.849 234.092l-.017 420.436 74.274 42.845v-420.43l-74.257-42.851z" fill="#0D0D1E" stroke="#fff"
    stroke-linecap="round" stroke-linejoin="round" />
  <path d="M404.588 269.303l-154.76-89.315-37.699 21.77 154.76 89.305 37.699-21.76z" fill="#0D0D1E" stroke="#fff"
    stroke-linecap="round" stroke-linejoin="round" />
  <path
    d="M404.588 269.303l-154.76-89.315-37.699 21.77 154.76 89.305 37.699-21.76zM404.588 269.304l.007 422.688-37.706 21.742v-422.67l37.699-21.76z"
    fill="#0D0D1E" stroke="#fff" stroke-linecap="round" stroke-linejoin="round" />
  <path d="M404.588 269.304l.007 422.688-37.706 21.742v-422.67l37.699-21.76z" fill="#0D0D1E" stroke="#fff"
    stroke-linecap="round" stroke-linejoin="round" />
  <path
    d="M359.312 715.711l-.007-420.405-145.999-84.259-.014 420.419-9.736-6.045.007-431.101 165.482 95.497v431.08l-9.733-5.186z"
    fill="#0D0D1E" stroke="#fff" stroke-linecap="round" stroke-linejoin="round" />
  <path
    d="M359.312 715.711l-.007-420.405-145.999-84.259-.014 420.419-9.736-6.045.007-431.101 165.482 95.497v431.08l-9.733-5.186z"
    fill="#0D0D1E" stroke="#fff" stroke-linecap="round" stroke-linejoin="round" />
  <path d="M369.045 720.897v-431.08L203.56 194.32l-.007 426.101" stroke="#E60B0B" stroke-width="3"
    stroke-linecap="round" stroke-linejoin="round" />
  <path d="M156.307 430.31l4.906-2.684v-51.744l-22.875-13.789-4.913 2.694 22.882 65.523z" fill="#0D0D1E" stroke="#fff"
    stroke-linecap="round" stroke-linejoin="round" />
  <path d="M133.373 364.978l22.502 13.57v51.334L133 416.103l.373-51.125z" fill="#0D0D1E" stroke="#fff"
    stroke-linecap="round" stroke-linejoin="round" />
  <path d="M133.373 364.978l22.502 13.57v51.334L133 416.103l.373-51.125z" fill="#0D0D1E" stroke="#fff"
    stroke-linecap="round" stroke-linejoin="round" />
  <path
    d="M147.85 409.19c0 2.224-1.793 2.969-4.008 1.688-2.218-1.294-4.019-4.131-4.019-6.338 0-2.224 1.801-2.968 4.019-1.684 2.215 1.284 4.008 4.117 4.008 6.334z"
    fill="#0D0D1E" stroke="#fff" stroke-linecap="round" stroke-linejoin="round" />
  <path
    d="M147.85 409.19c0 2.224-1.793 2.969-4.008 1.688-2.218-1.294-4.019-4.131-4.019-6.338 0-2.224 1.801-2.968 4.019-1.684 2.215 1.284 4.008 4.117 4.008 6.334zM147.85 389.035c0 2.207-1.793 2.955-4.008 1.671-2.218-1.285-4.019-4.128-4.019-6.328 0-2.224 1.801-2.979 4.019-1.688 2.215 1.295 4.008 4.128 4.008 6.345z"
    fill="#0D0D1E" stroke="#fff" stroke-linecap="round" stroke-linejoin="round" />
  <path
    d="M147.85 389.035c0 2.207-1.793 2.955-4.008 1.671-2.218-1.285-4.019-4.128-4.019-6.328 0-2.224 1.801-2.979 4.019-1.688 2.215 1.295 4.008 4.128 4.008 6.345z"
    fill="#0D0D1E" stroke="#fff" stroke-linecap="round" stroke-linejoin="round" />
  <path d="M161.218 375.886l-4.91 2.683M245.5 614.5l111.5 64" stroke="#fff" stroke-linecap="round"
    stroke-linejoin="round" />
  <path
    d="M416.576 2v.002m0-.002h-.002L178.436 139.423l.004.002-.006 423.673-1.436-.828L162 570.933l8.454 4.877-.006 14.97 7.995 4.613-.003 17.041 31.4 18.117v37.286l.008.005 7.834 24.383 132.679 76.549 4.952-2.858-7.842-20.384v-33.567l63.284 36.515 17.416-14.04 2.805 1.617v-.195l238.129-137.401v-450.73C583.888 98.517 502.546 51.612 416.576 2z"
    stroke="#fff" stroke-width="3" stroke-linecap="round" stroke-linejoin="round" />
  <path d="M682 152v435.5" stroke="#E60E12" stroke-width="3" stroke-linecap="round" stroke-linejoin="round" />
  <defs>
    <linearGradient id="prefix__paint0_linear_1025_5171" x1="374.124" y1="142.136" x2="494.369" y2="-26.114"
      gradientUnits="userSpaceOnUse">
      <stop stop-color="#0D0D1E" />
      <stop offset="1" stop-color="#2B0B22" />
    </linearGradient>
    <linearGradient id="prefix__paint1_linear_1025_5171" x1="525.664" y1="439.891" x2="752.951" y2="355.06"
      gradientUnits="userSpaceOnUse">
      <stop stop-color="#0D0D1E" />
      <stop offset="1" stop-color="#2B0B22" />
    </linearGradient>
  </defs>
</svg>