<svg width="24" height="24" viewBox="0 0 24 24" fill="none" xmlns="http://www.w3.org/2000/svg">
<rect opacity="0.12" x="2" y="2" width="20" height="20" rx="6" fill="white"/>
<path fill-rule="evenodd" clip-rule="evenodd" d="M2.75005 7.5C2.75005 4.87665 4.8767 2.75 7.50005 2.75H8.00005C8.41427 2.75 8.75005 2.41421 8.75005 2C8.75005 1.58579 8.41427 1.25 8.00005 1.25H7.50005C4.04827 1.25 1.25005 4.04822 1.25005 7.5V8C1.25005 8.41421 1.58584 8.75 2.00005 8.75C2.41427 8.75 2.75005 8.41421 2.75005 8V7.5ZM16.0001 1.25C15.5858 1.25 15.2501 1.58579 15.2501 2C15.2501 2.41421 15.5858 2.75 16.0001 2.75H16.5001C19.1234 2.75 21.2501 4.87665 21.2501 7.5V8C21.2501 8.41421 21.5858 8.75 22.0001 8.75C22.4143 8.75 22.7501 8.41421 22.7501 8V7.5C22.7501 4.04822 19.9518 1.25 16.5001 1.25H16.0001ZM2.75005 16C2.75005 15.5858 2.41427 15.25 2.00005 15.25C1.58584 15.25 1.25005 15.5858 1.25005 16V16.5C1.25005 19.9518 4.04827 22.75 7.50005 22.75H8.00005C8.41427 22.75 8.75005 22.4142 8.75005 22C8.75005 21.5858 8.41427 21.25 8.00005 21.25H7.50005C4.8767 21.25 2.75005 19.1234 2.75005 16.5V16ZM22.7501 16C22.7501 15.5858 22.4143 15.25 22.0001 15.25C21.5858 15.25 21.2501 15.5858 21.2501 16V16.5C21.2501 19.1234 19.1234 21.25 16.5001 21.25H16.0001C15.5858 21.25 15.2501 21.5858 15.2501 22C15.2501 22.4142 15.5858 22.75 16.0001 22.75H16.5001C19.9518 22.75 22.7501 19.9518 22.7501 16.5V16ZM2 11.25C1.58579 11.25 1.25 11.5858 1.25 12C1.25 12.4142 1.58579 12.75 2 12.75H22C22.4142 12.75 22.75 12.4142 22.75 12C22.75 11.5858 22.4142 11.25 22 11.25H2Z" fill="white"/>
</svg>
