<svg width="56" height="32" fill="none" xmlns="http://www.w3.org/2000/svg">
  <rect width="56" height="32" rx="16" fill="#43A1F7" />
  <rect width="56" height="32" rx="16" fill="url(#prefix__paint0_linear_35_874)" />
  <circle cx="40" cy="16" r="14" fill="#fff" />
  <path fill-rule="evenodd" clip-rule="evenodd"
    d="M43.25 11a.917.917 0 00-.916-.916h-.054a.97.97 0 00-.93.69l-.342 1.143h1.325c.507 0 .917-.41.917-.917zm1.32.917a2.417 2.417 0 00-2.237-3.333h-.053A2.47 2.47 0 0040 10.103a2.47 2.47 0 00-2.28-1.52h-.053a2.417 2.417 0 00-2.237 3.334h-1.096a1.75 1.75 0 100 3.5h11.333a1.75 1.75 0 100-3.5H44.57zm-6.903 0h1.325l-.342-1.142a.97.97 0 00-.93-.691h-.053a.917.917 0 000 1.833zm-1.38 4H43.713c.382-.001.747-.002 1.065.11.56.195 1 .636 1.196 1.196.111.317.11.682.11 1.064v.244c0 1.051 0 1.77-.21 2.374a3.75 3.75 0 01-2.302 2.301c-.604.212-1.323.211-2.375.21H38.803c-1.052.001-1.771.002-2.375-.21a3.75 3.75 0 01-2.3-2.3c-.212-.604-.212-1.324-.211-2.376v-.243c-.001-.382-.002-.747.11-1.064.195-.56.636-1 1.196-1.197.317-.11.682-.11 1.064-.11z"
    fill="#43A1F7" />
</svg>